<?xml version="1.0" encoding="utf-8"?>
<!-- Generator: Adobe Illustrator 24.0.2, SVG Export Plug-In . SVG Version: 6.00 Build 0)  -->
<svg version="1.1" id="Слой_1" xmlns="http://www.w3.org/2000/svg" xmlns:xlink="http://www.w3.org/1999/xlink" x="0px" y="0px"
	 viewBox="0 0 209.3 310.9" style="enable-background:new 0 0 209.3 310.9;" xml:space="preserve">
<style type="text/css">
	.st0{opacity:0.23;fill:#5F9A80;enable-background:new    ;}
	.st1{opacity:0.2;fill:#9FA492;enable-background:new    ;}
	.st2{opacity:0.28;fill:#72B398;enable-background:new    ;}
	.st3{opacity:0.44;fill:#A7ACA7;enable-background:new    ;}
	.st4{opacity:0.44;fill:#496649;enable-background:new    ;}
	.st5{opacity:0.44;fill:#84B8A6;enable-background:new    ;}
	.st6{opacity:0.18;fill:#F3F3F3;enable-background:new    ;}
	.st7{fill:none;stroke:url(#SVGID_1_);stroke-width:5;stroke-miterlimit:10;}
</style>
<title>4 экран</title>
<g>
	<path class="st0" d="M-1163.4-462.4V-34c0,0,97-78,105.7-225.3c8.7-147.3-66.8-203.1-66.8-203.1H-1163.4"/>
	<polyline class="st1" points="-1163.4,-462.4 -1163.4,-248.2 -924.3,-462.4 -1163.4,-462.4 	"/>
	<polyline class="st2" points="-1162.6,-462.4 -1017.9,-462.4 -1163.4,-338.7 -1163.4,-462.4 	"/>
	<polygon class="st3" points="210.1,134.8 5.7,310.8 210,310.8 	"/>
	<polygon class="st4" points="210.1,54.6 210.1,68 194.8,68 	"/>
	<path class="st5" d="M210.1,8.1v302.7h-88.2c0,0-20.7-94,3.2-174C148.9,56.8,210.1,8.1,210.1,8.1z"/>
	<path class="st6" d="M-1062.1-339l137.8-123.4h-14.1l-126,111.5C-1063.6-347-1062.7-343.1-1062.1-339z"/>
	
		<linearGradient id="SVGID_1_" gradientUnits="userSpaceOnUse" x1="-1188.6035" y1="-349.75" x2="-965.8965" y2="-349.75" gradientTransform="matrix(1 0 0 1 0 -62.4)">
		<stop  offset="0" style="stop-color:#FFFFFF;stop-opacity:0"/>
		<stop  offset="0.51" style="stop-color:#FFFFFF"/>
		<stop  offset="1" style="stop-color:#FFFFFF;stop-opacity:0"/>
	</linearGradient>
	<line class="st7" x1="-1187" y1="-320.4" x2="-967.5" y2="-503.9"/>
</g>
</svg>
