<?xml version="1.0" encoding="utf-8"?>
<!-- Generator: Adobe Illustrator 24.0.2, SVG Export Plug-In . SVG Version: 6.00 Build 0)  -->
<svg version="1.1" id="Слой_1" xmlns="http://www.w3.org/2000/svg" xmlns:xlink="http://www.w3.org/1999/xlink" x="0px" y="0px"
	 viewBox="0 0 247.1 431.2" style="enable-background:new 0 0 247.1 431.2;" xml:space="preserve">
<style type="text/css">
	.st0{opacity:0.23;fill:#5F9A80;enable-background:new    ;}
	.st1{opacity:0.2;fill:#9FA492;enable-background:new    ;}
	.st2{opacity:0.28;fill:#72B398;enable-background:new    ;}
	.st3{opacity:0.44;fill:#A7ACA7;enable-background:new    ;}
	.st4{opacity:0.44;fill:#496649;enable-background:new    ;}
	.st5{opacity:0.44;fill:#84B8A6;enable-background:new    ;}
	.st6{opacity:0.18;fill:#F3F3F3;enable-background:new    ;}
	.st7{fill:none;stroke:url(#SVGID_1_);stroke-width:5;stroke-miterlimit:10;}
</style>
<title>4 экран</title>
<g>
	<path class="st0" d="M0.4-1.4V427c0,0,97-78,105.7-225.3S39.3-1.4,39.3-1.4H0.4"/>
	<polyline class="st1" points="0.4,-1.4 0.4,212.8 239.5,-1.4 0.4,-1.4 	"/>
	<polyline class="st2" points="1.2,-1.4 145.9,-1.4 0.4,122.3 0.4,-1.4 	"/>
	<polygon class="st3" points="1373.9,595.8 1169.5,771.8 1373.8,771.8 	"/>
	<polygon class="st4" points="1373.9,515.6 1373.9,529 1358.6,529 	"/>
	<path class="st5" d="M1373.9,469.1v302.7h-88.2c0,0-20.7-94,3.2-174C1312.7,517.8,1373.9,469.1,1373.9,469.1z"/>
	<path class="st6" d="M101.7,122L239.5-1.4h-14.1l-126,111.5C100.2,114,101.1,117.9,101.7,122z"/>
	
		<linearGradient id="SVGID_1_" gradientUnits="userSpaceOnUse" x1="-24.7635" y1="111.25" x2="197.9435" y2="111.25" gradientTransform="matrix(1 0 0 1 0 -62.4)">
		<stop  offset="0" style="stop-color:#FFFFFF;stop-opacity:0"/>
		<stop  offset="0.51" style="stop-color:#FFFFFF"/>
		<stop  offset="1" style="stop-color:#FFFFFF;stop-opacity:0"/>
	</linearGradient>
	<line class="st7" x1="-23.2" y1="140.6" x2="196.3" y2="-42.9"/>
</g>
</svg>
