<svg xmlns="http://www.w3.org/2000/svg" xmlns:xlink="http://www.w3.org/1999/xlink" viewBox="0 0 102.82 28.86"><defs><style>.cls-1{fill:none;}.cls-2{clip-path:url(#clip-path);}.cls-3{fill:#fff;}</style><clipPath id="clip-path" transform="translate(-6.72 -3.07)"><rect class="cls-1" width="111.83" height="37.59"/></clipPath></defs><title>Ресурс 1</title><g id="Слой_2" data-name="Слой 2"><g id="_1_экран" data-name="1 экран"><g id="Баннер"><g class="cls-2"><path class="cls-3" d="M91.74,15.68H88.46v5.43c0,1.54.81,1.83,1.87,1.83a8.09,8.09,0,0,0,1.16-.11l.25,2.43a17.4,17.4,0,0,1-2.75.29c-2.26,0-4.26-.79-4.26-3.56V15.68H82.82V13.29h1.91V10.65l3.73-1.06v3.7h3.28Z" transform="translate(-6.72 -3.07)"/><path class="cls-3" d="M81.69,25.3H78V17.58c0-1.13-.48-1.76-1.77-1.76a3.56,3.56,0,0,0-2.29,1V25.3H70.17v-12H73.8v1.05A7.43,7.43,0,0,1,77.92,13a3.47,3.47,0,0,1,3.77,3.73Z" transform="translate(-6.72 -3.07)"/><path class="cls-3" d="M62.64,3.07c-1.89,3.2-1.07,6.09-2.92,7.94-1.49,1.49-2.86,1.44-4.48,1.44a4.51,4.51,0,0,0-2.11.38,8.87,8.87,0,0,1-.38-2.66,5.31,5.31,0,0,1,1.43-4c2.1-2.09,5.9-2.76,8.46-3.12" transform="translate(-6.72 -3.07)"/><path class="cls-3" d="M42.45,25.3H38.71V17.58c0-1.13-.47-1.76-1.76-1.76a3.56,3.56,0,0,0-2.29,1V25.3H30.93v-12h3.63v1.05A7.4,7.4,0,0,1,38.68,13a3.47,3.47,0,0,1,3.77,3.73Z" transform="translate(-6.72 -3.07)"/><path class="cls-3" d="M30.16,13.29l-6,14.55a5.73,5.73,0,0,1-5.28,3.87,10.41,10.41,0,0,1-2.75-.35l.53-2.4a7.18,7.18,0,0,0,1.62.21c1.5,0,2.3-1.27,3-3l.35-.85L17,13.29h4l2.18,5.95a16.56,16.56,0,0,1,.53,2c.14-.52.4-1.38.67-2.08l2.25-5.84Z" transform="translate(-6.72 -3.07)"/><path class="cls-3" d="M17,21.46c0,2.61-2.42,4.05-5.29,4.05a12.64,12.64,0,0,1-5-1l1-2.43a10.2,10.2,0,0,0,3.41.81c.87,0,2.08-.11,2.08-1.16,0-.5-.31-.75-.88-.92s-1.81-.4-2.53-.6A3.24,3.24,0,0,1,7,16.81c0-2.48,2.12-4,5-4a14.06,14.06,0,0,1,4.2.57l-1,2.43a8.58,8.58,0,0,0-2.75-.53c-1,0-1.73.39-1.73,1a1,1,0,0,0,.74.88c.59.19,1.51.36,2.29.53A3.55,3.55,0,0,1,17,21.46" transform="translate(-6.72 -3.07)"/><path class="cls-3" d="M103.19,25.3H99.67v-.95a5,5,0,0,1-3.41,1.2c-2.24,0-3.77-1.09-3.77-3.35,0-4,4-4.6,7.08-4.62v-.31c0-1-.38-1.69-2.15-1.69A7.42,7.42,0,0,0,94,16.7l-.92-2.22A11.81,11.81,0,0,1,98.47,13c2.87,0,4.72,1.37,4.72,3.76Zm-3.62-3.21V19.87c-1.73,0-3.35.15-3.35,1.8A1.36,1.36,0,0,0,97.74,23a2.4,2.4,0,0,0,1.83-.92" transform="translate(-6.72 -3.07)"/><path class="cls-3" d="M68.53,18.85c0,.4,0,.81,0,1.24h-8c0,1.74.9,2.78,3.45,2.78A6.23,6.23,0,0,0,67.05,22l1,2.22a11,11,0,0,1-5.39,1.38c-3.73,0-6.06-2.41-6.06-6.24A6.19,6.19,0,0,1,62.93,13c4.1,0,5.6,2.39,5.6,5.84m-3.84-1.16a1.8,1.8,0,0,0-1.9-2.15,2.28,2.28,0,0,0-2.22,2.15Z" transform="translate(-6.72 -3.07)"/><path class="cls-3" d="M56.6,26.78c0,3.5-3.49,5.13-6.94,5.14-3,0-5.95-.86-5.95-3.77a3.6,3.6,0,0,1,1.93-2.75,3.93,3.93,0,0,1-1.09-.77,2.67,2.67,0,0,1-.6-1.87c0-1.17,1-2.26,2.29-3a2.82,2.82,0,0,1-1.62-2.92c0-2.56,2.43-3.91,5.6-3.91,2.7,0,5.29.65,5.29,3.8S52.67,20.9,49.8,20.9a7.68,7.68,0,0,1-1.48-.18c-.3.16-.91.57-.91,1,0,.92,1.26,1.06,1.83,1.06h3c2.74,0,4.4,1.33,4.4,4M51.88,17a1.68,1.68,0,0,0-1.8-1.83A1.84,1.84,0,0,0,48.25,17,1.7,1.7,0,0,0,50,18.78,1.73,1.73,0,0,0,51.88,17m1,10.32c0-1-.79-1.34-1.59-1.34H48a2.28,2.28,0,0,0-1.26,1.73c0,1.05,1.42,1.76,3.1,1.76s3-.8,3-2.15" transform="translate(-6.72 -3.07)"/><path class="cls-3" d="M107.43,20.88a2.05,2.05,0,1,1-2.11,2,2,2,0,0,1,2.11-2m0,3.66a1.61,1.61,0,1,0-1.55-1.62,1.55,1.55,0,0,0,1.55,1.62m-.82-2.77h.87c.57,0,.9.18.9.68a.59.59,0,0,1-.61.62l.62,1h-.48l-.56-1h-.29v1h-.45Zm.45,1h.41c.26,0,.45,0,.45-.32s-.26-.28-.47-.28h-.39Z" transform="translate(-6.72 -3.07)"/></g></g></g></g></svg>